<svg width="370" height="189" viewBox="0 0 370 189" fill="none" xmlns="http://www.w3.org/2000/svg">
<rect width="370" height="189" rx="20" fill="#060606" fill-opacity="0.7"/>
<circle cx="38" cy="38" r="21" fill="#517F89"/>
<path d="M88.66 18.42C87.48 18.42 86.9 19 86.9 20.18V29.86C86.9 31.04 87.48 31.62 88.66 31.62V32H88.64C85.64 31.4 82.72 32 82.72 32V31.62C83.9 31.62 84.5 31.02 84.5 29.86V19.54L79.38 31.98H78.68L73.08 19.54V29.86C73.08 31.06 73.66 31.66 74.82 31.68V32H74.8C72.78 31.6 70.9 32 70.9 32V31.66C72.06 31.66 72.64 31.06 72.64 29.86V20.18C72.64 19 72.06 18.42 70.9 18.42V18.04V18.02C72.5 18.4 75.46 18.18 75.46 18.18C75.44 18.96 80.16 29.04 80.16 29.04L84.56 18.24C84.66 18.26 86.26 18.4 88.64 18.02C88.66 18.02 88.66 18.04 88.66 18.04V18.42ZM104.638 22.38C105.518 22.38 106.138 22.94 106.138 23.78C106.138 24.64 105.438 25.5 104.658 25.62C104.738 25.32 104.778 25.02 104.778 24.74C104.778 24.06 104.538 23.42 103.858 23.5C102.518 23.66 101.278 26.2 100.378 27.88C99.5381 29.46 98.7181 30.96 97.7981 31.74C97.2181 32.22 96.4581 32.42 95.7381 32.12C95.2781 31.94 94.8981 31.58 94.7781 31.1C94.7581 31.04 94.6781 30.82 94.7181 30.76C94.4781 31.16 93.9981 31.56 93.4581 31.86C92.9581 32.14 92.3381 32.3 91.5981 32.28C90.7981 32.26 90.1181 32 89.5581 31.54C89.0381 31.06 88.7781 30.42 88.7781 29.6C88.7781 28.3 89.4981 27.4 90.9581 26.9C93.3781 26.04 94.5781 25.38 94.5581 24.3C94.5581 23.62 94.2181 23 93.5581 22.78C92.8981 22.54 92.0781 22.66 91.5581 23.16C91.1181 23.62 90.9381 24.26 90.9381 24.88C90.9381 25.44 91.0981 26 91.3781 26.42C89.9381 26.48 89.1381 25.72 89.1381 24.8C89.1381 24.32 89.3781 23.86 89.6981 23.5C89.8581 23.34 90.0181 23.2 90.1981 23.08C91.3781 22.26 93.1181 22.14 94.4581 22.54C95.3981 22.8 96.3981 23.42 96.5981 24.38C96.6381 24.48 96.6581 24.62 96.6581 24.74L96.6981 30.58C96.5781 32.9 98.9381 29.44 99.9181 27.62C100.438 26.66 100.938 25.68 101.558 24.76C101.958 24.2 102.378 23.7 102.858 23.22C103.338 22.76 103.938 22.38 104.638 22.38ZM92.6181 31.44C93.6181 31.48 94.5981 30.04 94.5981 30.04C94.5981 30.04 94.5981 28.24 94.5981 26.1C93.7581 26.62 92.9981 26.84 92.3581 27.14C91.8981 27.36 91.5581 27.68 91.3381 28.1C91.1181 28.5 91.0181 28.96 91.0181 29.48C91.0381 30 91.1781 30.46 91.4381 30.86C91.6981 31.24 92.0981 31.42 92.6181 31.44ZM99.3381 24.66C99.3381 23.58 99.5181 23.02 98.0381 23.02V22.9C98.0381 22.9 99.1781 22.22 100.178 22.16C100.938 22.12 101.618 22.44 101.638 23.72C101.638 23.86 101.638 23.86 101.638 24.04C101.618 24.08 101.378 24.4 101.358 24.42C100.738 25.34 100.498 25.84 99.9781 26.8C99.8181 27.12 99.5381 27.64 99.3181 28L99.3381 26.96V24.66ZM101.638 29.72C101.658 30.98 102.098 31.62 102.978 31.68V32C102.978 32 100.838 31.32 97.9981 32V31.68C98.1381 31.66 98.2581 31.64 98.3781 31.6C98.3981 31.6 98.4181 31.58 98.4381 31.58C98.5581 31.54 98.6781 31.46 98.7781 31.38C98.7781 31.38 98.7781 31.38 98.7981 31.36C98.9981 31.2 99.1381 30.94 99.2181 30.62C99.2181 30.58 99.2381 30.58 99.2381 30.56C99.5981 29.98 100.018 29.34 100.378 28.66C100.758 27.98 101.178 27.08 101.638 26.32C101.638 27.42 101.638 26.9 101.638 26.9C101.658 28.42 101.638 29.72 101.638 29.72ZM109.777 29.72C109.797 30.98 110.237 31.64 111.117 31.68V32.02C111.117 32.02 108.977 31.34 106.117 32.02V31.68C106.257 31.68 106.357 31.66 106.477 31.62C106.497 31.62 106.537 31.6 106.557 31.6C106.677 31.54 106.797 31.48 106.897 31.4C106.897 31.4 106.897 31.38 106.917 31.38C107.117 31.2 107.257 30.98 107.337 30.64C107.337 30.62 107.357 30.58 107.357 30.56C107.417 30.32 107.437 30.04 107.437 29.72L107.477 24.66C107.477 23.56 107.637 23 106.177 23V22.88C106.177 22.88 109.777 20.72 109.777 23.72C109.797 23.68 109.777 29.72 109.777 29.72ZM108.617 20.66C107.877 20.66 107.297 20.08 107.297 19.34C107.297 18.62 107.877 18.02 108.617 18.02C109.337 18.02 109.937 18.62 109.937 19.34C109.937 20.08 109.337 20.66 108.617 20.66ZM120.379 31.62V31.92C120.119 32.04 119.719 32.3 119.219 32.3C117.979 32.3 117.339 31.74 117.259 30.78C117.019 31.18 116.539 31.6 115.999 31.9C115.479 32.18 114.839 32.34 114.119 32.32C113.299 32.3 112.619 32.04 112.059 31.56C111.519 31.08 111.259 30.44 111.259 29.62C111.259 28.3 111.979 27.38 113.459 26.88C115.919 26.02 117.119 25.34 117.119 24.26C117.099 23.58 116.759 22.94 116.099 22.72C115.419 22.48 114.599 22.6 114.079 23.12C113.619 23.56 113.459 24.22 113.459 24.84C113.459 25.42 113.599 25.96 113.899 26.4C112.439 26.46 111.619 25.7 111.619 24.78C111.619 24.28 111.859 23.8 112.199 23.46C112.339 23.28 112.519 23.14 112.699 23.02C113.879 22.2 115.639 22.08 116.999 22.48C117.959 22.74 118.959 23.36 119.159 24.32C119.199 24.42 119.219 24.58 119.219 24.7L119.259 30.6C119.259 31.2 119.219 32.3 120.379 31.62ZM117.139 30.06C117.139 30.06 117.139 28.24 117.139 26.08C116.299 26.6 115.519 26.82 114.879 27.14C114.419 27.36 114.059 27.68 113.839 28.1C113.619 28.5 113.519 28.98 113.519 29.5C113.539 30.02 113.679 30.48 113.939 30.88C114.219 31.28 114.619 31.44 115.139 31.46C116.159 31.52 117.139 30.06 117.139 30.06ZM135.988 29.88C136.488 31.04 137.148 31.62 137.968 31.62V32C137.968 32 135.608 31.38 132.188 32V31.62C133.428 31.62 133.808 31.04 133.308 29.88L133.188 29.56C132.648 29.56 131.968 29.26 131.208 28.92C129.768 28.28 128.168 27.56 126.788 28.42L126.248 29.88C125.788 31.04 126.228 31.64 127.208 31.62V32C127.208 32 125.108 31.6 123.688 32V31.62C124.628 31.62 125.348 31.04 125.788 29.88L130.268 18.04H130.908L135.988 29.88ZM131.368 28.52C131.988 28.8 132.568 29.06 132.988 29.12L129.608 21.1L127.028 27.82C128.468 27.24 130.068 27.94 131.368 28.52ZM153.19 29.7C153.19 30.96 153.63 31.62 154.51 31.68V32C154.51 32 152.37 31.32 149.51 32V31.68C149.65 31.66 149.77 31.64 149.89 31.6C149.91 31.6 149.93 31.58 149.95 31.58C150.09 31.54 150.19 31.46 150.29 31.38C150.75 30.96 150.85 30.3 150.83 29.72L150.85 28.4V25.1C150.85 24.98 150.85 24.88 150.83 24.78C150.75 24.14 150.41 23.52 149.83 23.2C149.13 22.82 148.43 23 147.93 23.6C147.63 23.96 147.45 24.46 147.45 24.94C147.45 25.54 147.47 25.94 147.49 26.54C147.49 27.54 147.49 28.7 147.49 29.72C147.51 30.96 147.95 31.62 148.83 31.68V32C148.83 32 146.69 31.32 143.83 32V31.68C143.97 31.66 144.07 31.64 144.19 31.6C144.21 31.6 144.25 31.58 144.27 31.58C144.39 31.54 144.51 31.46 144.61 31.38C145.07 30.98 145.15 30.3 145.15 29.72L145.19 25.12C145.21 24.04 144.45 22.98 143.29 22.98C143.17 22.98 143.05 23 142.95 23.02C142.89 23.04 142.83 23.06 142.77 23.08C142.71 23.1 142.67 23.1 142.63 23.14C142.57 23.16 142.53 23.18 142.47 23.2C142.29 23.3 142.11 23.44 141.97 23.62C141.89 23.7 141.85 23.78 141.79 23.88C141.77 23.92 141.79 24.76 141.79 25.02C141.79 26.06 141.77 26.96 141.77 28C141.77 28.42 141.77 28.82 141.77 29.24C141.75 29.86 141.73 30.5 142.05 31.06C142.15 31.24 142.31 31.4 142.49 31.5C142.59 31.56 142.69 31.6 142.79 31.62C142.85 31.64 143.01 31.66 143.09 31.66C143.11 31.68 143.11 32 143.11 32C143.09 32 140.95 31.32 138.09 32V31.66C138.23 31.66 138.35 31.64 138.47 31.6C138.49 31.58 138.51 31.58 138.53 31.58C138.65 31.52 138.77 31.46 138.87 31.38C139.31 30.98 139.39 30.34 139.41 29.8C139.41 29.74 139.41 29.68 139.41 29.6V26.46C139.43 26.46 139.43 24.66 139.43 24.66C139.43 23.56 139.61 22.9 138.15 22.9V22.78C138.15 22.78 140.19 21.66 141.21 22.34C141.43 22.5 141.59 22.78 141.65 23.04C141.67 23.06 141.75 23.34 141.73 23.36C142.25 22.86 142.85 22.36 143.57 22.24C143.83 22.18 144.09 22.14 144.39 22.14C145.35 22.14 146.09 22.42 146.63 22.98C146.87 23.22 147.05 23.48 147.17 23.8C147.25 23.68 147.51 23.36 147.57 23.3C147.67 23.16 147.79 23.04 147.89 22.94C147.95 22.9 147.99 22.88 148.03 22.84C148.61 22.38 149.29 22.12 150.11 22.14C151.07 22.14 151.81 22.42 152.35 22.96C152.89 23.5 153.17 24.32 153.19 25.4V28.06C153.19 28.12 153.19 29.7 153.19 29.7ZM163.758 31.62V31.92C163.498 32.04 163.098 32.3 162.598 32.3C161.358 32.3 160.718 31.74 160.638 30.78C160.398 31.18 159.918 31.6 159.378 31.9C158.858 32.18 158.218 32.34 157.498 32.32C156.678 32.3 155.998 32.04 155.438 31.56C154.898 31.08 154.638 30.44 154.638 29.62C154.638 28.3 155.358 27.38 156.838 26.88C159.298 26.02 160.498 25.34 160.498 24.26C160.478 23.58 160.138 22.94 159.478 22.72C158.798 22.48 157.978 22.6 157.458 23.12C156.998 23.56 156.838 24.22 156.838 24.84C156.838 25.42 156.978 25.96 157.278 26.4C155.818 26.46 154.998 25.7 154.998 24.78C154.998 24.28 155.238 23.8 155.578 23.46C155.718 23.28 155.898 23.14 156.078 23.02C157.258 22.2 159.018 22.08 160.378 22.48C161.338 22.74 162.338 23.36 162.538 24.32C162.578 24.42 162.598 24.58 162.598 24.7L162.638 30.6C162.638 31.2 162.598 32.3 163.758 31.62ZM160.518 30.06C160.518 30.06 160.518 28.24 160.518 26.08C159.678 26.6 158.898 26.82 158.258 27.14C157.798 27.36 157.438 27.68 157.218 28.1C156.998 28.5 156.898 28.98 156.898 29.5C156.918 30.02 157.058 30.48 157.318 30.88C157.598 31.28 157.998 31.44 158.518 31.46C159.538 31.52 160.518 30.06 160.518 30.06ZM173.572 29.7C173.592 30.96 174.032 31.6 174.912 31.66V32C174.912 32 172.772 31.3 169.912 32V31.66C170.052 31.64 170.172 31.64 170.292 31.6C170.312 31.58 170.332 31.58 170.352 31.56C170.492 31.52 170.592 31.46 170.692 31.36C170.912 31.18 171.052 30.94 171.132 30.62C171.132 30.58 171.152 30.54 171.152 30.52C171.212 30.28 171.232 30 171.232 29.7L171.292 25.1C171.292 24.5 171.112 24 170.772 23.58C170.412 23.16 169.952 22.94 169.372 22.94C168.852 22.94 168.412 23.16 168.052 23.6C167.692 24.02 167.512 24.52 167.512 25.1V29.62C167.512 29.68 167.532 29.72 167.532 29.76C167.532 30.04 167.552 30.28 167.612 30.5C167.612 30.52 167.612 30.54 167.632 30.56C167.792 31.24 168.212 31.62 168.852 31.66C168.872 31.66 168.872 31.98 168.872 31.98C168.852 32 166.712 31.3 163.852 32V31.66C163.992 31.64 164.112 31.62 164.232 31.58C164.252 31.58 164.272 31.56 164.292 31.56C164.412 31.52 164.532 31.44 164.632 31.36C164.852 31.18 164.992 30.92 165.072 30.58C165.072 30.56 165.092 30.54 165.092 30.52C165.152 30.28 165.172 30 165.172 29.7L165.192 24.64C165.192 23.54 165.372 22.98 163.912 22.98V22.86C163.912 22.86 165.952 21.64 166.972 22.34C167.372 22.6 167.492 23.16 167.512 23.62C168.272 22.76 169.212 22.14 170.352 22.14C171.332 22.1 172.132 22.38 172.712 22.96C173.272 23.52 173.552 24.34 173.552 25.4L173.572 29.7ZM183.821 29.72C183.821 30.82 184.281 31.28 185.221 31.12V31.46H185.201C183.661 31.38 181.901 32.26 181.901 32.26C181.701 32.08 181.581 31.68 181.541 31.12C180.621 31.86 179.661 32.24 178.621 32.24C177.381 32.24 176.361 31.8 175.621 30.94C174.861 30.06 174.501 28.86 174.501 27.32C174.501 25.78 174.901 24.52 175.721 23.58C176.521 22.62 177.521 22.14 178.741 22.14C179.781 22.18 180.721 22.48 181.521 23.1V19.82C181.521 18.72 181.701 18.16 180.241 18.16V18.04C180.401 17.94 180.561 17.86 180.741 17.78C181.041 17.64 181.361 17.5 181.681 17.42C182.341 17.24 183.181 17.18 183.601 17.84C183.921 18.38 183.861 19.08 183.861 19.66C183.861 19.66 183.861 21.76 183.861 22.04L183.821 29.72ZM180.881 30.86C181.301 30.42 181.501 29.86 181.521 29.18V23.92C181.301 23.64 181.001 23.4 180.621 23.18C180.201 22.94 179.801 22.82 179.401 22.82C178.581 22.82 177.941 23.2 177.461 24C177.021 24.78 176.801 25.8 176.801 27.1C176.781 28.4 177.041 29.48 177.561 30.34C178.081 31.2 178.721 31.6 179.501 31.58C179.981 31.54 180.441 31.3 180.881 30.86ZM194.5 31.62V31.92C194.24 32.04 193.84 32.3 193.34 32.3C192.1 32.3 191.46 31.74 191.38 30.78C191.14 31.18 190.66 31.6 190.12 31.9C189.6 32.18 188.96 32.34 188.24 32.32C187.42 32.3 186.74 32.04 186.18 31.56C185.64 31.08 185.38 30.44 185.38 29.62C185.38 28.3 186.1 27.38 187.58 26.88C190.04 26.02 191.24 25.34 191.24 24.26C191.22 23.58 190.88 22.94 190.22 22.72C189.54 22.48 188.72 22.6 188.2 23.12C187.74 23.56 187.58 24.22 187.58 24.84C187.58 25.42 187.72 25.96 188.02 26.4C186.56 26.46 185.74 25.7 185.74 24.78C185.74 24.28 185.98 23.8 186.32 23.46C186.46 23.28 186.64 23.14 186.82 23.02C188 22.2 189.76 22.08 191.12 22.48C192.08 22.74 193.08 23.36 193.28 24.32C193.32 24.42 193.34 24.58 193.34 24.7L193.38 30.6C193.38 31.2 193.34 32.3 194.5 31.62ZM191.26 30.06C191.26 30.06 191.26 28.24 191.26 26.08C190.42 26.6 189.64 26.82 189 27.14C188.54 27.36 188.18 27.68 187.96 28.1C187.74 28.5 187.64 28.98 187.64 29.5C187.66 30.02 187.8 30.48 188.06 30.88C188.34 31.28 188.74 31.44 189.26 31.46C190.28 31.52 191.26 30.06 191.26 30.06Z" fill="white"/>
<path d="M82 44.5156L81.0859 47.6328C80.7474 48.7995 80.5417 49.5391 80.4688 49.8516C80.3958 50.1641 80.3594 50.4141 80.3594 50.6016C80.3594 50.7682 80.4141 50.9089 80.5234 51.0234C80.638 51.138 80.7786 51.1953 80.9453 51.1953C81.3255 51.1953 81.7812 51.0052 82.3125 50.625C82.849 50.2448 83.3073 49.6276 83.6875 48.7734C84.0677 47.9193 84.2578 47.0286 84.2578 46.1016C84.2578 45.2109 84.0417 44.388 83.6094 43.6328C83.1823 42.8776 82.5755 42.2995 81.7891 41.8984C81.0078 41.4922 80.1432 41.2891 79.1953 41.2891C77.9922 41.2891 76.875 41.6094 75.8438 42.25C74.8125 42.8854 73.9948 43.8021 73.3906 45C72.7917 46.1979 72.4922 47.4427 72.4922 48.7344C72.4922 49.9323 72.7552 51.0208 73.2812 52C73.8125 52.9792 74.5573 53.7188 75.5156 54.2188C76.474 54.724 77.5052 54.9766 78.6094 54.9766C79.9792 54.9766 81.2161 54.6094 82.3203 53.875C83.4297 53.1406 84.2865 52.0677 84.8906 50.6562H85.3438C84.875 52.0833 84.0234 53.2396 82.7891 54.125C81.5547 55.0104 80.1484 55.4531 78.5703 55.4531C77.3307 55.4531 76.1797 55.1589 75.1172 54.5703C74.0547 53.987 73.2292 53.1562 72.6406 52.0781C72.0521 51.0052 71.7578 49.8229 71.7578 48.5312C71.7578 47.1562 72.0807 45.875 72.7266 44.6875C73.3724 43.4948 74.276 42.5651 75.4375 41.8984C76.6042 41.2266 77.8411 40.8906 79.1484 40.8906C80.2266 40.8906 81.1979 41.1146 82.0625 41.5625C82.9323 42.0052 83.5938 42.6562 84.0469 43.5156C84.5 44.3698 84.7266 45.2786 84.7266 46.2422C84.7266 47.1953 84.513 48.1406 84.0859 49.0781C83.6641 50.0104 83.125 50.6901 82.4688 51.1172C81.8125 51.5443 81.1276 51.7578 80.4141 51.7578C80.0182 51.7578 79.7188 51.6641 79.5156 51.4766C79.3177 51.2891 79.2188 51.026 79.2188 50.6875C79.2188 50.3958 79.2656 50.013 79.3594 49.5391C78.5885 50.4714 77.9714 51.0755 77.5078 51.3516C77.0443 51.6276 76.6354 51.7656 76.2812 51.7656C75.9115 51.7656 75.5833 51.6016 75.2969 51.2734C75.0104 50.9401 74.8672 50.4974 74.8672 49.9453C74.8672 49.1901 75.112 48.3438 75.6016 47.4062C76.0964 46.4688 76.75 45.7057 77.5625 45.1172C78.1615 44.6849 78.6979 44.4688 79.1719 44.4688C79.5208 44.4688 79.8099 44.5599 80.0391 44.7422C80.2734 44.9193 80.4323 45.1875 80.5156 45.5469L80.7734 44.6875L82 44.5156ZM79.2578 44.8359C78.8672 44.8359 78.4714 45.0417 78.0703 45.4531C77.4818 46.0573 76.9792 46.8724 76.5625 47.8984C76.2552 48.6484 76.1016 49.2526 76.1016 49.7109C76.1016 50.0391 76.1927 50.3073 76.375 50.5156C76.5625 50.7188 76.7708 50.8203 77 50.8203C77.3021 50.8203 77.6198 50.7057 77.9531 50.4766C78.2865 50.2474 78.6354 49.8958 79 49.4219C79.3646 48.9427 79.6302 48.4635 79.7969 47.9844C80.0885 47.1562 80.2344 46.4818 80.2344 45.9609C80.2344 45.6172 80.138 45.3438 79.9453 45.1406C79.7578 44.9375 79.5286 44.8359 79.2578 44.8359ZM90.2891 50.9688C89.5547 51.5365 89.0938 51.8646 88.9062 51.9531C88.625 52.0833 88.3255 52.1484 88.0078 52.1484C87.513 52.1484 87.1042 51.9792 86.7812 51.6406C86.4635 51.3021 86.3047 50.8568 86.3047 50.3047C86.3047 49.9557 86.3828 49.6536 86.5391 49.3984C86.7526 49.0443 87.1224 48.7109 87.6484 48.3984C88.1797 48.0859 89.0599 47.7057 90.2891 47.2578V46.9766C90.2891 46.263 90.1745 45.7734 89.9453 45.5078C89.7214 45.2422 89.3932 45.1094 88.9609 45.1094C88.6328 45.1094 88.3724 45.1979 88.1797 45.375C87.9818 45.5521 87.8828 45.7552 87.8828 45.9844L87.8984 46.4375C87.8984 46.6771 87.8359 46.862 87.7109 46.9922C87.5911 47.1224 87.4323 47.1875 87.2344 47.1875C87.0417 47.1875 86.8828 47.1198 86.7578 46.9844C86.638 46.849 86.5781 46.6641 86.5781 46.4297C86.5781 45.9818 86.8073 45.5703 87.2656 45.1953C87.724 44.8203 88.3672 44.6328 89.1953 44.6328C89.8307 44.6328 90.3516 44.7396 90.7578 44.9531C91.0651 45.1146 91.2917 45.3672 91.4375 45.7109C91.5312 45.9349 91.5781 46.3932 91.5781 47.0859V49.5156C91.5781 50.1979 91.5911 50.6172 91.6172 50.7734C91.6432 50.9245 91.6849 51.026 91.7422 51.0781C91.8047 51.1302 91.875 51.1562 91.9531 51.1562C92.0365 51.1562 92.1094 51.138 92.1719 51.1016C92.2812 51.0339 92.4922 50.8438 92.8047 50.5312V50.9688C92.2214 51.75 91.6641 52.1406 91.1328 52.1406C90.8776 52.1406 90.6745 52.0521 90.5234 51.875C90.3724 51.6979 90.2943 51.3958 90.2891 50.9688ZM90.2891 50.4609V47.7344C89.5026 48.0469 88.9948 48.2682 88.7656 48.3984C88.3542 48.6276 88.0599 48.8672 87.8828 49.1172C87.7057 49.3672 87.6172 49.6406 87.6172 49.9375C87.6172 50.3125 87.7292 50.625 87.9531 50.875C88.1771 51.1198 88.4349 51.2422 88.7266 51.2422C89.1224 51.2422 89.6432 50.9818 90.2891 50.4609ZM95.4688 46.1562C95.9896 45.6354 96.2969 45.3359 96.3906 45.2578C96.625 45.0599 96.8776 44.9062 97.1484 44.7969C97.4193 44.6875 97.6875 44.6328 97.9531 44.6328C98.401 44.6328 98.7865 44.763 99.1094 45.0234C99.4323 45.2839 99.6484 45.6615 99.7578 46.1562C100.294 45.5312 100.747 45.1224 101.117 44.9297C101.487 44.7318 101.867 44.6328 102.258 44.6328C102.638 44.6328 102.974 44.7318 103.266 44.9297C103.562 45.1224 103.797 45.4401 103.969 45.8828C104.083 46.1849 104.141 46.6589 104.141 47.3047V50.3828C104.141 50.8307 104.174 51.138 104.242 51.3047C104.294 51.4193 104.391 51.5182 104.531 51.6016C104.672 51.6797 104.901 51.7188 105.219 51.7188V52H101.688V51.7188H101.836C102.143 51.7188 102.383 51.6589 102.555 51.5391C102.674 51.4557 102.76 51.3229 102.812 51.1406C102.833 51.0521 102.844 50.7995 102.844 50.3828V47.3047C102.844 46.7214 102.773 46.3099 102.633 46.0703C102.43 45.737 102.104 45.5703 101.656 45.5703C101.38 45.5703 101.102 45.6406 100.82 45.7812C100.544 45.9167 100.208 46.1719 99.8125 46.5469L99.7969 46.6328L99.8125 46.9688V50.3828C99.8125 50.8724 99.8385 51.1771 99.8906 51.2969C99.9479 51.4167 100.052 51.5182 100.203 51.6016C100.354 51.6797 100.612 51.7188 100.977 51.7188V52H97.3594V51.7188C97.7552 51.7188 98.026 51.6719 98.1719 51.5781C98.3229 51.4844 98.4271 51.3438 98.4844 51.1562C98.5104 51.0677 98.5234 50.8099 98.5234 50.3828V47.3047C98.5234 46.7214 98.4375 46.3021 98.2656 46.0469C98.0365 45.7135 97.7161 45.5469 97.3047 45.5469C97.0234 45.5469 96.7448 45.6224 96.4688 45.7734C96.0365 46.0026 95.7031 46.2604 95.4688 46.5469V50.3828C95.4688 50.8516 95.5 51.1562 95.5625 51.2969C95.6302 51.4375 95.7266 51.5443 95.8516 51.6172C95.9818 51.6849 96.2422 51.7188 96.6328 51.7188V52H93.0938V51.7188C93.4219 51.7188 93.651 51.6849 93.7812 51.6172C93.9115 51.5443 94.0104 51.4323 94.0781 51.2812C94.1458 51.125 94.1797 50.8255 94.1797 50.3828V47.6484C94.1797 46.862 94.1562 46.3542 94.1094 46.125C94.0729 45.9531 94.0156 45.8359 93.9375 45.7734C93.8594 45.7057 93.7526 45.6719 93.6172 45.6719C93.4714 45.6719 93.2969 45.7109 93.0938 45.7891L92.9766 45.5078L95.1328 44.6328H95.4688V46.1562ZM109.852 50.9688C109.117 51.5365 108.656 51.8646 108.469 51.9531C108.188 52.0833 107.888 52.1484 107.57 52.1484C107.076 52.1484 106.667 51.9792 106.344 51.6406C106.026 51.3021 105.867 50.8568 105.867 50.3047C105.867 49.9557 105.945 49.6536 106.102 49.3984C106.315 49.0443 106.685 48.7109 107.211 48.3984C107.742 48.0859 108.622 47.7057 109.852 47.2578V46.9766C109.852 46.263 109.737 45.7734 109.508 45.5078C109.284 45.2422 108.956 45.1094 108.523 45.1094C108.195 45.1094 107.935 45.1979 107.742 45.375C107.544 45.5521 107.445 45.7552 107.445 45.9844L107.461 46.4375C107.461 46.6771 107.398 46.862 107.273 46.9922C107.154 47.1224 106.995 47.1875 106.797 47.1875C106.604 47.1875 106.445 47.1198 106.32 46.9844C106.201 46.849 106.141 46.6641 106.141 46.4297C106.141 45.9818 106.37 45.5703 106.828 45.1953C107.286 44.8203 107.93 44.6328 108.758 44.6328C109.393 44.6328 109.914 44.7396 110.32 44.9531C110.628 45.1146 110.854 45.3672 111 45.7109C111.094 45.9349 111.141 46.3932 111.141 47.0859V49.5156C111.141 50.1979 111.154 50.6172 111.18 50.7734C111.206 50.9245 111.247 51.026 111.305 51.0781C111.367 51.1302 111.438 51.1562 111.516 51.1562C111.599 51.1562 111.672 51.138 111.734 51.1016C111.844 51.0339 112.055 50.8438 112.367 50.5312V50.9688C111.784 51.75 111.227 52.1406 110.695 52.1406C110.44 52.1406 110.237 52.0521 110.086 51.875C109.935 51.6979 109.857 51.3958 109.852 50.9688ZM109.852 50.4609V47.7344C109.065 48.0469 108.557 48.2682 108.328 48.3984C107.917 48.6276 107.622 48.8672 107.445 49.1172C107.268 49.3672 107.18 49.6406 107.18 49.9375C107.18 50.3125 107.292 50.625 107.516 50.875C107.74 51.1198 107.997 51.2422 108.289 51.2422C108.685 51.2422 109.206 50.9818 109.852 50.4609ZM114.992 46.1484C115.831 45.138 116.63 44.6328 117.391 44.6328C117.781 44.6328 118.117 44.7318 118.398 44.9297C118.68 45.1224 118.904 45.4427 119.07 45.8906C119.185 46.2031 119.242 46.6823 119.242 47.3281V50.3828C119.242 50.8359 119.279 51.1432 119.352 51.3047C119.409 51.4349 119.5 51.5365 119.625 51.6094C119.755 51.6823 119.992 51.7188 120.336 51.7188V52H116.797V51.7188H116.945C117.279 51.7188 117.51 51.6693 117.641 51.5703C117.776 51.4661 117.87 51.3151 117.922 51.1172C117.943 51.0391 117.953 50.7943 117.953 50.3828V47.4531C117.953 46.8021 117.867 46.3307 117.695 46.0391C117.529 45.7422 117.245 45.5938 116.844 45.5938C116.224 45.5938 115.607 45.9323 114.992 46.6094V50.3828C114.992 50.8672 115.021 51.1667 115.078 51.2812C115.151 51.4323 115.25 51.5443 115.375 51.6172C115.505 51.6849 115.766 51.7188 116.156 51.7188V52H112.617V51.7188H112.773C113.138 51.7188 113.383 51.6276 113.508 51.4453C113.638 51.2578 113.703 50.9036 113.703 50.3828V47.7266C113.703 46.8672 113.682 46.3438 113.641 46.1562C113.604 45.9688 113.544 45.8411 113.461 45.7734C113.383 45.7057 113.276 45.6719 113.141 45.6719C112.995 45.6719 112.82 45.7109 112.617 45.7891L112.5 45.5078L114.656 44.6328H114.992V46.1484ZM125.961 51.1953C125.612 51.5599 125.271 51.8229 124.938 51.9844C124.604 52.1406 124.245 52.2188 123.859 52.2188C123.078 52.2188 122.396 51.8932 121.812 51.2422C121.229 50.5859 120.938 49.7448 120.938 48.7188C120.938 47.6927 121.26 46.7552 121.906 45.9062C122.552 45.0521 123.383 44.625 124.398 44.625C125.029 44.625 125.549 44.8255 125.961 45.2266V43.9062C125.961 43.0885 125.94 42.5859 125.898 42.3984C125.862 42.2109 125.802 42.0833 125.719 42.0156C125.635 41.9479 125.531 41.9141 125.406 41.9141C125.271 41.9141 125.091 41.9557 124.867 42.0391L124.766 41.7656L126.898 40.8906H127.25V49.1641C127.25 50.0026 127.268 50.5156 127.305 50.7031C127.346 50.8854 127.409 51.013 127.492 51.0859C127.581 51.1589 127.682 51.1953 127.797 51.1953C127.938 51.1953 128.125 51.151 128.359 51.0625L128.445 51.3359L126.32 52.2188H125.961V51.1953ZM125.961 50.6484V46.9609C125.93 46.6068 125.836 46.2839 125.68 45.9922C125.523 45.7005 125.315 45.4818 125.055 45.3359C124.799 45.1849 124.549 45.1094 124.305 45.1094C123.846 45.1094 123.438 45.3151 123.078 45.7266C122.604 46.2682 122.367 47.0599 122.367 48.1016C122.367 49.1536 122.596 49.9609 123.055 50.5234C123.513 51.0807 124.023 51.3594 124.586 51.3594C125.06 51.3594 125.518 51.1224 125.961 50.6484ZM132.961 50.9688C132.227 51.5365 131.766 51.8646 131.578 51.9531C131.297 52.0833 130.997 52.1484 130.68 52.1484C130.185 52.1484 129.776 51.9792 129.453 51.6406C129.135 51.3021 128.977 50.8568 128.977 50.3047C128.977 49.9557 129.055 49.6536 129.211 49.3984C129.424 49.0443 129.794 48.7109 130.32 48.3984C130.852 48.0859 131.732 47.7057 132.961 47.2578V46.9766C132.961 46.263 132.846 45.7734 132.617 45.5078C132.393 45.2422 132.065 45.1094 131.633 45.1094C131.305 45.1094 131.044 45.1979 130.852 45.375C130.654 45.5521 130.555 45.7552 130.555 45.9844L130.57 46.4375C130.57 46.6771 130.508 46.862 130.383 46.9922C130.263 47.1224 130.104 47.1875 129.906 47.1875C129.714 47.1875 129.555 47.1198 129.43 46.9844C129.31 46.849 129.25 46.6641 129.25 46.4297C129.25 45.9818 129.479 45.5703 129.938 45.1953C130.396 44.8203 131.039 44.6328 131.867 44.6328C132.503 44.6328 133.023 44.7396 133.43 44.9531C133.737 45.1146 133.964 45.3672 134.109 45.7109C134.203 45.9349 134.25 46.3932 134.25 47.0859V49.5156C134.25 50.1979 134.263 50.6172 134.289 50.7734C134.315 50.9245 134.357 51.026 134.414 51.0781C134.477 51.1302 134.547 51.1562 134.625 51.1562C134.708 51.1562 134.781 51.138 134.844 51.1016C134.953 51.0339 135.164 50.8438 135.477 50.5312V50.9688C134.893 51.75 134.336 52.1406 133.805 52.1406C133.549 52.1406 133.346 52.0521 133.195 51.875C133.044 51.6979 132.966 51.3958 132.961 50.9688ZM132.961 50.4609V47.7344C132.174 48.0469 131.667 48.2682 131.438 48.3984C131.026 48.6276 130.732 48.8672 130.555 49.1172C130.378 49.3672 130.289 49.6406 130.289 49.9375C130.289 50.3125 130.401 50.625 130.625 50.875C130.849 51.1198 131.107 51.2422 131.398 51.2422C131.794 51.2422 132.315 50.9818 132.961 50.4609ZM137.391 42.4453L139.969 41.1875H140.227V50.1328C140.227 50.7266 140.25 51.0964 140.297 51.2422C140.349 51.388 140.453 51.5 140.609 51.5781C140.766 51.6562 141.083 51.7005 141.562 51.7109V52H137.578V51.7109C138.078 51.7005 138.401 51.6589 138.547 51.5859C138.693 51.5078 138.794 51.4062 138.852 51.2812C138.909 51.151 138.938 50.7682 138.938 50.1328V44.4141C138.938 43.6432 138.911 43.1484 138.859 42.9297C138.823 42.763 138.755 42.6406 138.656 42.5625C138.562 42.4844 138.448 42.4453 138.312 42.4453C138.12 42.4453 137.852 42.526 137.508 42.6875L137.391 42.4453ZM150.688 41.1875V41.4766C150 41.5443 149.438 41.6823 149 41.8906C148.568 42.0938 148.138 42.4062 147.711 42.8281C147.289 43.25 146.938 43.7214 146.656 44.2422C146.38 44.7578 146.148 45.3724 145.961 46.0859C146.711 45.5703 147.464 45.3125 148.219 45.3125C148.943 45.3125 149.57 45.6042 150.102 46.1875C150.633 46.7708 150.898 47.5208 150.898 48.4375C150.898 49.3229 150.63 50.1302 150.094 50.8594C149.448 51.7448 148.594 52.1875 147.531 52.1875C146.807 52.1875 146.193 51.9479 145.688 51.4688C144.698 50.5365 144.203 49.3281 144.203 47.8438C144.203 46.8958 144.393 45.9948 144.773 45.1406C145.154 44.2865 145.695 43.5286 146.398 42.8672C147.107 42.2057 147.784 41.7604 148.43 41.5312C149.076 41.3021 149.677 41.1875 150.234 41.1875H150.688ZM145.828 46.6562C145.734 47.3594 145.688 47.9271 145.688 48.3594C145.688 48.8594 145.779 49.4036 145.961 49.9922C146.148 50.5755 146.424 51.0391 146.789 51.3828C147.055 51.6276 147.378 51.75 147.758 51.75C148.211 51.75 148.615 51.5365 148.969 51.1094C149.328 50.6823 149.508 50.0729 149.508 49.2812C149.508 48.3906 149.331 47.6198 148.977 46.9688C148.622 46.3177 148.12 45.9922 147.469 45.9922C147.271 45.9922 147.057 46.0339 146.828 46.1172C146.604 46.2005 146.271 46.3802 145.828 46.6562ZM162.516 44.5156L161.602 47.6328C161.263 48.7995 161.057 49.5391 160.984 49.8516C160.911 50.1641 160.875 50.4141 160.875 50.6016C160.875 50.7682 160.93 50.9089 161.039 51.0234C161.154 51.138 161.294 51.1953 161.461 51.1953C161.841 51.1953 162.297 51.0052 162.828 50.625C163.365 50.2448 163.823 49.6276 164.203 48.7734C164.583 47.9193 164.773 47.0286 164.773 46.1016C164.773 45.2109 164.557 44.388 164.125 43.6328C163.698 42.8776 163.091 42.2995 162.305 41.8984C161.523 41.4922 160.659 41.2891 159.711 41.2891C158.508 41.2891 157.391 41.6094 156.359 42.25C155.328 42.8854 154.51 43.8021 153.906 45C153.307 46.1979 153.008 47.4427 153.008 48.7344C153.008 49.9323 153.271 51.0208 153.797 52C154.328 52.9792 155.073 53.7188 156.031 54.2188C156.99 54.724 158.021 54.9766 159.125 54.9766C160.495 54.9766 161.732 54.6094 162.836 53.875C163.945 53.1406 164.802 52.0677 165.406 50.6562H165.859C165.391 52.0833 164.539 53.2396 163.305 54.125C162.07 55.0104 160.664 55.4531 159.086 55.4531C157.846 55.4531 156.695 55.1589 155.633 54.5703C154.57 53.987 153.745 53.1562 153.156 52.0781C152.568 51.0052 152.273 49.8229 152.273 48.5312C152.273 47.1562 152.596 45.875 153.242 44.6875C153.888 43.4948 154.792 42.5651 155.953 41.8984C157.12 41.2266 158.357 40.8906 159.664 40.8906C160.742 40.8906 161.714 41.1146 162.578 41.5625C163.448 42.0052 164.109 42.6562 164.562 43.5156C165.016 44.3698 165.242 45.2786 165.242 46.2422C165.242 47.1953 165.029 48.1406 164.602 49.0781C164.18 50.0104 163.641 50.6901 162.984 51.1172C162.328 51.5443 161.643 51.7578 160.93 51.7578C160.534 51.7578 160.234 51.6641 160.031 51.4766C159.833 51.2891 159.734 51.026 159.734 50.6875C159.734 50.3958 159.781 50.013 159.875 49.5391C159.104 50.4714 158.487 51.0755 158.023 51.3516C157.56 51.6276 157.151 51.7656 156.797 51.7656C156.427 51.7656 156.099 51.6016 155.812 51.2734C155.526 50.9401 155.383 50.4974 155.383 49.9453C155.383 49.1901 155.628 48.3438 156.117 47.4062C156.612 46.4688 157.266 45.7057 158.078 45.1172C158.677 44.6849 159.214 44.4688 159.688 44.4688C160.036 44.4688 160.326 44.5599 160.555 44.7422C160.789 44.9193 160.948 45.1875 161.031 45.5469L161.289 44.6875L162.516 44.5156ZM159.773 44.8359C159.383 44.8359 158.987 45.0417 158.586 45.4531C157.997 46.0573 157.495 46.8724 157.078 47.8984C156.771 48.6484 156.617 49.2526 156.617 49.7109C156.617 50.0391 156.708 50.3073 156.891 50.5156C157.078 50.7188 157.286 50.8203 157.516 50.8203C157.818 50.8203 158.135 50.7057 158.469 50.4766C158.802 50.2474 159.151 49.8958 159.516 49.4219C159.88 48.9427 160.146 48.4635 160.312 47.9844C160.604 47.1562 160.75 46.4818 160.75 45.9609C160.75 45.6172 160.654 45.3438 160.461 45.1406C160.273 44.9375 160.044 44.8359 159.773 44.8359ZM168.664 49.3906C168.227 49.1771 167.891 48.8802 167.656 48.5C167.422 48.1146 167.305 47.6901 167.305 47.2266C167.305 46.5182 167.57 45.9089 168.102 45.3984C168.638 44.888 169.323 44.6328 170.156 44.6328C170.839 44.6328 171.43 44.7995 171.93 45.1328H173.445C173.669 45.1328 173.799 45.1406 173.836 45.1562C173.872 45.1667 173.898 45.1875 173.914 45.2188C173.945 45.2656 173.961 45.349 173.961 45.4688C173.961 45.6042 173.948 45.6979 173.922 45.75C173.906 45.776 173.878 45.7969 173.836 45.8125C173.799 45.8281 173.669 45.8359 173.445 45.8359H172.516C172.807 46.2109 172.953 46.6901 172.953 47.2734C172.953 47.9401 172.698 48.5104 172.188 48.9844C171.677 49.4583 170.992 49.6953 170.133 49.6953C169.779 49.6953 169.417 49.6432 169.047 49.5391C168.818 49.737 168.661 49.9115 168.578 50.0625C168.5 50.2083 168.461 50.3333 168.461 50.4375C168.461 50.526 168.503 50.612 168.586 50.6953C168.674 50.7786 168.844 50.8385 169.094 50.875C169.24 50.8958 169.604 50.9141 170.188 50.9297C171.26 50.9557 171.956 50.9922 172.273 51.0391C172.758 51.1068 173.143 51.2865 173.43 51.5781C173.721 51.8698 173.867 52.2292 173.867 52.6562C173.867 53.2448 173.591 53.7969 173.039 54.3125C172.227 55.0729 171.167 55.4531 169.859 55.4531C168.854 55.4531 168.005 55.2266 167.312 54.7734C166.922 54.513 166.727 54.2422 166.727 53.9609C166.727 53.8359 166.755 53.7109 166.812 53.5859C166.901 53.3932 167.083 53.125 167.359 52.7812C167.396 52.7344 167.661 52.4531 168.156 51.9375C167.885 51.776 167.693 51.6328 167.578 51.5078C167.469 51.3776 167.414 51.2318 167.414 51.0703C167.414 50.888 167.487 50.6745 167.633 50.4297C167.784 50.1849 168.128 49.8385 168.664 49.3906ZM170.023 45.0078C169.638 45.0078 169.315 45.1615 169.055 45.4688C168.794 45.776 168.664 46.2474 168.664 46.8828C168.664 47.7057 168.841 48.3438 169.195 48.7969C169.466 49.1406 169.81 49.3125 170.227 49.3125C170.622 49.3125 170.948 49.1641 171.203 48.8672C171.458 48.5703 171.586 48.1042 171.586 47.4688C171.586 46.6406 171.406 45.9922 171.047 45.5234C170.781 45.1797 170.44 45.0078 170.023 45.0078ZM168.586 52C168.341 52.2656 168.156 52.513 168.031 52.7422C167.906 52.9714 167.844 53.1823 167.844 53.375C167.844 53.625 167.995 53.8438 168.297 54.0312C168.818 54.3542 169.57 54.5156 170.555 54.5156C171.492 54.5156 172.182 54.349 172.625 54.0156C173.073 53.6875 173.297 53.3359 173.297 52.9609C173.297 52.6901 173.164 52.4974 172.898 52.3828C172.628 52.2682 172.091 52.2005 171.289 52.1797C170.117 52.1484 169.216 52.0885 168.586 52ZM176.875 46.1562C177.396 45.6354 177.703 45.3359 177.797 45.2578C178.031 45.0599 178.284 44.9062 178.555 44.7969C178.826 44.6875 179.094 44.6328 179.359 44.6328C179.807 44.6328 180.193 44.763 180.516 45.0234C180.839 45.2839 181.055 45.6615 181.164 46.1562C181.701 45.5312 182.154 45.1224 182.523 44.9297C182.893 44.7318 183.273 44.6328 183.664 44.6328C184.044 44.6328 184.38 44.7318 184.672 44.9297C184.969 45.1224 185.203 45.4401 185.375 45.8828C185.49 46.1849 185.547 46.6589 185.547 47.3047V50.3828C185.547 50.8307 185.581 51.138 185.648 51.3047C185.701 51.4193 185.797 51.5182 185.938 51.6016C186.078 51.6797 186.307 51.7188 186.625 51.7188V52H183.094V51.7188H183.242C183.549 51.7188 183.789 51.6589 183.961 51.5391C184.081 51.4557 184.167 51.3229 184.219 51.1406C184.24 51.0521 184.25 50.7995 184.25 50.3828V47.3047C184.25 46.7214 184.18 46.3099 184.039 46.0703C183.836 45.737 183.51 45.5703 183.062 45.5703C182.786 45.5703 182.508 45.6406 182.227 45.7812C181.951 45.9167 181.615 46.1719 181.219 46.5469L181.203 46.6328L181.219 46.9688V50.3828C181.219 50.8724 181.245 51.1771 181.297 51.2969C181.354 51.4167 181.458 51.5182 181.609 51.6016C181.76 51.6797 182.018 51.7188 182.383 51.7188V52H178.766V51.7188C179.161 51.7188 179.432 51.6719 179.578 51.5781C179.729 51.4844 179.833 51.3438 179.891 51.1562C179.917 51.0677 179.93 50.8099 179.93 50.3828V47.3047C179.93 46.7214 179.844 46.3021 179.672 46.0469C179.443 45.7135 179.122 45.5469 178.711 45.5469C178.43 45.5469 178.151 45.6224 177.875 45.7734C177.443 46.0026 177.109 46.2604 176.875 46.5469V50.3828C176.875 50.8516 176.906 51.1562 176.969 51.2969C177.036 51.4375 177.133 51.5443 177.258 51.6172C177.388 51.6849 177.648 51.7188 178.039 51.7188V52H174.5V51.7188C174.828 51.7188 175.057 51.6849 175.188 51.6172C175.318 51.5443 175.417 51.4323 175.484 51.2812C175.552 51.125 175.586 50.8255 175.586 50.3828V47.6484C175.586 46.862 175.562 46.3542 175.516 46.125C175.479 45.9531 175.422 45.8359 175.344 45.7734C175.266 45.7057 175.159 45.6719 175.023 45.6719C174.878 45.6719 174.703 45.7109 174.5 45.7891L174.383 45.5078L176.539 44.6328H176.875V46.1562ZM191.258 50.9688C190.523 51.5365 190.062 51.8646 189.875 51.9531C189.594 52.0833 189.294 52.1484 188.977 52.1484C188.482 52.1484 188.073 51.9792 187.75 51.6406C187.432 51.3021 187.273 50.8568 187.273 50.3047C187.273 49.9557 187.352 49.6536 187.508 49.3984C187.721 49.0443 188.091 48.7109 188.617 48.3984C189.148 48.0859 190.029 47.7057 191.258 47.2578V46.9766C191.258 46.263 191.143 45.7734 190.914 45.5078C190.69 45.2422 190.362 45.1094 189.93 45.1094C189.602 45.1094 189.341 45.1979 189.148 45.375C188.951 45.5521 188.852 45.7552 188.852 45.9844L188.867 46.4375C188.867 46.6771 188.805 46.862 188.68 46.9922C188.56 47.1224 188.401 47.1875 188.203 47.1875C188.01 47.1875 187.852 47.1198 187.727 46.9844C187.607 46.849 187.547 46.6641 187.547 46.4297C187.547 45.9818 187.776 45.5703 188.234 45.1953C188.693 44.8203 189.336 44.6328 190.164 44.6328C190.799 44.6328 191.32 44.7396 191.727 44.9531C192.034 45.1146 192.26 45.3672 192.406 45.7109C192.5 45.9349 192.547 46.3932 192.547 47.0859V49.5156C192.547 50.1979 192.56 50.6172 192.586 50.7734C192.612 50.9245 192.654 51.026 192.711 51.0781C192.773 51.1302 192.844 51.1562 192.922 51.1562C193.005 51.1562 193.078 51.138 193.141 51.1016C193.25 51.0339 193.461 50.8438 193.773 50.5312V50.9688C193.19 51.75 192.633 52.1406 192.102 52.1406C191.846 52.1406 191.643 52.0521 191.492 51.875C191.341 51.6979 191.263 51.3958 191.258 50.9688ZM191.258 50.4609V47.7344C190.471 48.0469 189.964 48.2682 189.734 48.3984C189.323 48.6276 189.029 48.8672 188.852 49.1172C188.674 49.3672 188.586 49.6406 188.586 49.9375C188.586 50.3125 188.698 50.625 188.922 50.875C189.146 51.1198 189.404 51.2422 189.695 51.2422C190.091 51.2422 190.612 50.9818 191.258 50.4609ZM196.133 40.8906C196.352 40.8906 196.536 40.9688 196.688 41.125C196.844 41.276 196.922 41.4609 196.922 41.6797C196.922 41.8984 196.844 42.0859 196.688 42.2422C196.536 42.3984 196.352 42.4766 196.133 42.4766C195.914 42.4766 195.727 42.3984 195.57 42.2422C195.414 42.0859 195.336 41.8984 195.336 41.6797C195.336 41.4609 195.411 41.276 195.562 41.125C195.719 40.9688 195.909 40.8906 196.133 40.8906ZM196.781 44.6328V50.3828C196.781 50.8307 196.812 51.1302 196.875 51.2812C196.943 51.4271 197.039 51.5365 197.164 51.6094C197.294 51.6823 197.529 51.7188 197.867 51.7188V52H194.391V51.7188C194.74 51.7188 194.974 51.6849 195.094 51.6172C195.214 51.5495 195.307 51.4375 195.375 51.2812C195.448 51.125 195.484 50.8255 195.484 50.3828V47.625C195.484 46.849 195.461 46.3464 195.414 46.1172C195.378 45.9505 195.32 45.8359 195.242 45.7734C195.164 45.7057 195.057 45.6719 194.922 45.6719C194.776 45.6719 194.599 45.7109 194.391 45.7891L194.281 45.5078L196.438 44.6328H196.781ZM201.227 40.8906V50.3828C201.227 50.8307 201.258 51.1276 201.32 51.2734C201.388 51.4193 201.49 51.5312 201.625 51.6094C201.76 51.6823 202.013 51.7188 202.383 51.7188V52H198.875V51.7188C199.203 51.7188 199.427 51.6849 199.547 51.6172C199.667 51.5495 199.76 51.4375 199.828 51.2812C199.896 51.125 199.93 50.8255 199.93 50.3828V43.8828C199.93 43.0755 199.911 42.5807 199.875 42.3984C199.839 42.2109 199.779 42.0833 199.695 42.0156C199.617 41.9479 199.516 41.9141 199.391 41.9141C199.255 41.9141 199.083 41.9557 198.875 42.0391L198.742 41.7656L200.875 40.8906H201.227ZM204.719 50.4844C204.964 50.4844 205.169 50.5703 205.336 50.7422C205.503 50.9089 205.586 51.112 205.586 51.3516C205.586 51.5911 205.5 51.7969 205.328 51.9688C205.161 52.1354 204.958 52.2188 204.719 52.2188C204.479 52.2188 204.273 52.1354 204.102 51.9688C203.935 51.7969 203.852 51.5911 203.852 51.3516C203.852 51.1068 203.935 50.901 204.102 50.7344C204.273 50.5677 204.479 50.4844 204.719 50.4844ZM213.297 49.2812C213.104 50.224 212.727 50.9505 212.164 51.4609C211.602 51.9661 210.979 52.2188 210.297 52.2188C209.484 52.2188 208.776 51.8776 208.172 51.1953C207.568 50.513 207.266 49.5911 207.266 48.4297C207.266 47.3047 207.599 46.3906 208.266 45.6875C208.938 44.9844 209.742 44.6328 210.68 44.6328C211.383 44.6328 211.961 44.8203 212.414 45.1953C212.867 45.5651 213.094 45.9505 213.094 46.3516C213.094 46.5495 213.029 46.7109 212.898 46.8359C212.773 46.9557 212.596 47.0156 212.367 47.0156C212.06 47.0156 211.828 46.9167 211.672 46.7188C211.583 46.6094 211.523 46.401 211.492 46.0938C211.466 45.7865 211.362 45.5521 211.18 45.3906C210.997 45.2344 210.745 45.1562 210.422 45.1562C209.901 45.1562 209.482 45.349 209.164 45.7344C208.742 46.2448 208.531 46.9193 208.531 47.7578C208.531 48.612 208.74 49.3672 209.156 50.0234C209.578 50.6745 210.146 51 210.859 51C211.37 51 211.828 50.8255 212.234 50.4766C212.521 50.237 212.799 49.8021 213.07 49.1719L213.297 49.2812ZM217.828 44.6328C218.911 44.6328 219.781 45.0443 220.438 45.8672C220.995 46.5703 221.273 47.3776 221.273 48.2891C221.273 48.9297 221.12 49.5781 220.812 50.2344C220.505 50.8906 220.081 51.3854 219.539 51.7188C219.003 52.0521 218.404 52.2188 217.742 52.2188C216.664 52.2188 215.807 51.7891 215.172 50.9297C214.635 50.2057 214.367 49.3932 214.367 48.4922C214.367 47.8359 214.529 47.1849 214.852 46.5391C215.18 45.888 215.609 45.4089 216.141 45.1016C216.672 44.7891 217.234 44.6328 217.828 44.6328ZM217.586 45.1406C217.31 45.1406 217.031 45.224 216.75 45.3906C216.474 45.5521 216.25 45.8385 216.078 46.25C215.906 46.6615 215.82 47.1901 215.82 47.8359C215.82 48.8776 216.026 49.776 216.438 50.5312C216.854 51.2865 217.401 51.6641 218.078 51.6641C218.583 51.6641 219 51.4557 219.328 51.0391C219.656 50.6224 219.82 49.9062 219.82 48.8906C219.82 47.6198 219.547 46.6198 219 45.8906C218.63 45.3906 218.159 45.1406 217.586 45.1406ZM224.453 46.1562C224.974 45.6354 225.281 45.3359 225.375 45.2578C225.609 45.0599 225.862 44.9062 226.133 44.7969C226.404 44.6875 226.672 44.6328 226.938 44.6328C227.385 44.6328 227.771 44.763 228.094 45.0234C228.417 45.2839 228.633 45.6615 228.742 46.1562C229.279 45.5312 229.732 45.1224 230.102 44.9297C230.471 44.7318 230.852 44.6328 231.242 44.6328C231.622 44.6328 231.958 44.7318 232.25 44.9297C232.547 45.1224 232.781 45.4401 232.953 45.8828C233.068 46.1849 233.125 46.6589 233.125 47.3047V50.3828C233.125 50.8307 233.159 51.138 233.227 51.3047C233.279 51.4193 233.375 51.5182 233.516 51.6016C233.656 51.6797 233.885 51.7188 234.203 51.7188V52H230.672V51.7188H230.82C231.128 51.7188 231.367 51.6589 231.539 51.5391C231.659 51.4557 231.745 51.3229 231.797 51.1406C231.818 51.0521 231.828 50.7995 231.828 50.3828V47.3047C231.828 46.7214 231.758 46.3099 231.617 46.0703C231.414 45.737 231.089 45.5703 230.641 45.5703C230.365 45.5703 230.086 45.6406 229.805 45.7812C229.529 45.9167 229.193 46.1719 228.797 46.5469L228.781 46.6328L228.797 46.9688V50.3828C228.797 50.8724 228.823 51.1771 228.875 51.2969C228.932 51.4167 229.036 51.5182 229.188 51.6016C229.339 51.6797 229.596 51.7188 229.961 51.7188V52H226.344V51.7188C226.74 51.7188 227.01 51.6719 227.156 51.5781C227.307 51.4844 227.411 51.3438 227.469 51.1562C227.495 51.0677 227.508 50.8099 227.508 50.3828V47.3047C227.508 46.7214 227.422 46.3021 227.25 46.0469C227.021 45.7135 226.701 45.5469 226.289 45.5469C226.008 45.5469 225.729 45.6224 225.453 45.7734C225.021 46.0026 224.688 46.2604 224.453 46.5469V50.3828C224.453 50.8516 224.484 51.1562 224.547 51.2969C224.615 51.4375 224.711 51.5443 224.836 51.6172C224.966 51.6849 225.227 51.7188 225.617 51.7188V52H222.078V51.7188C222.406 51.7188 222.635 51.6849 222.766 51.6172C222.896 51.5443 222.995 51.4323 223.062 51.2812C223.13 51.125 223.164 50.8255 223.164 50.3828V47.6484C223.164 46.862 223.141 46.3542 223.094 46.125C223.057 45.9531 223 45.8359 222.922 45.7734C222.844 45.7057 222.737 45.6719 222.602 45.6719C222.456 45.6719 222.281 45.7109 222.078 45.7891L221.961 45.5078L224.117 44.6328H224.453V46.1562Z" fill="white"/>
<path d="M322.034 29.8633C321.258 30.0344 320.448 30.125 319.616 30.125C313.892 30.125 309.253 25.8437 309.253 20.5625C309.253 20.0186 309.302 19.4853 309.397 18.9662C309.353 19.0053 309.307 19.0414 309.259 19.075C308.917 19.3147 308.491 19.4036 307.639 19.5816L306.863 19.7435C303.864 20.3696 302.365 20.6827 302.008 21.7412C301.652 22.7998 302.674 23.9027 304.718 26.1086L305.247 26.6793C305.828 27.3062 306.118 27.6196 306.249 28.0074C306.38 28.3952 306.336 28.8134 306.248 29.6498L306.168 30.4112C305.859 33.3544 305.704 34.826 306.638 35.4802C307.572 36.1344 308.976 35.538 311.783 34.3451L312.51 34.0364C313.308 33.6974 313.707 33.528 314.129 33.528C314.552 33.528 314.951 33.6974 315.749 34.0364L316.475 34.3451C319.283 35.538 320.687 36.1344 321.621 35.4802C322.555 34.826 322.4 33.3544 322.091 30.4112L322.034 29.8633Z" fill="#FED56B"/>
<path opacity="0.5" d="M310.659 17.0844L310.259 17.7458C309.82 18.4722 309.601 18.8354 309.259 19.075C309.307 19.0414 309.352 19.0053 309.397 18.9662C309.302 19.4853 309.253 20.0186 309.253 20.5625C309.253 25.8437 313.892 30.125 319.615 30.125C320.448 30.125 321.258 30.0344 322.033 29.8633L322.011 29.6498C321.923 28.8134 321.879 28.3952 322.01 28.0074C322.141 27.6196 322.431 27.3062 323.012 26.6793L323.541 26.1086C325.585 23.9027 326.607 22.7997 326.25 21.7412C325.894 20.6827 324.394 20.3696 321.396 19.7435L320.62 19.5816C319.768 19.4036 319.342 19.3147 319 19.075C318.658 18.8354 318.438 18.4722 317.999 17.7458L317.6 17.0844C316.056 14.5281 315.284 13.25 314.129 13.25C312.975 13.25 312.203 14.5281 310.659 17.0844Z" fill="#FED56B"/>
<path d="M349.275 29.8633C348.499 30.0344 347.689 30.125 346.857 30.125C341.134 30.125 336.494 25.8437 336.494 20.5625C336.494 20.0186 336.543 19.4853 336.638 18.9662C336.594 19.0053 336.548 19.0414 336.5 19.075C336.158 19.3147 335.732 19.4036 334.88 19.5816L334.104 19.7435C331.105 20.3696 329.606 20.6827 329.249 21.7412C328.893 22.7998 329.915 23.9027 331.959 26.1086L332.488 26.6793C333.069 27.3062 333.359 27.6196 333.49 28.0074C333.621 28.3952 333.577 28.8134 333.489 29.6498L333.409 30.4112C333.1 33.3544 332.945 34.826 333.879 35.4802C334.813 36.1344 336.217 35.538 339.025 34.3451L339.751 34.0364C340.549 33.6974 340.948 33.528 341.371 33.528C341.793 33.528 342.192 33.6974 342.99 34.0364L343.717 34.3451C346.524 35.538 347.928 36.1344 348.862 35.4802C349.796 34.826 349.641 33.3544 349.332 30.4112L349.275 29.8633Z" fill="#FED56B"/>
<path opacity="0.5" d="M337.9 17.0844L337.5 17.7458C337.061 18.4722 336.842 18.8354 336.5 19.075C336.548 19.0414 336.594 19.0053 336.638 18.9662C336.543 19.4853 336.494 20.0186 336.494 20.5625C336.494 25.8437 341.133 30.125 346.856 30.125C347.689 30.125 348.499 30.0344 349.274 29.8633L349.252 29.6498C349.164 28.8134 349.12 28.3952 349.251 28.0074C349.382 27.6196 349.672 27.3062 350.253 26.6793L350.782 26.1086C352.826 23.9027 353.848 22.7997 353.492 21.7412C353.135 20.6827 351.636 20.3696 348.637 19.7435L347.861 19.5816C347.009 19.4036 346.583 19.3147 346.241 19.075C345.899 18.8354 345.679 18.4722 345.241 17.7458L344.841 17.0844C343.297 14.5281 342.525 13.25 341.37 13.25C340.216 13.25 339.444 14.5281 337.9 17.0844Z" fill="#FED56B"/>
<path d="M292.775 29.8633C291.999 30.0344 291.189 30.125 290.357 30.125C284.634 30.125 279.994 25.8437 279.994 20.5625C279.994 20.0186 280.043 19.4853 280.138 18.9662C280.094 19.0053 280.048 19.0414 280 19.075C279.658 19.3147 279.232 19.4036 278.38 19.5816L277.604 19.7435C274.605 20.3696 273.106 20.6827 272.749 21.7412C272.393 22.7998 273.415 23.9027 275.459 26.1086L275.988 26.6793C276.569 27.3062 276.859 27.6196 276.99 28.0074C277.121 28.3952 277.077 28.8134 276.989 29.6498L276.909 30.4112C276.6 33.3544 276.445 34.826 277.379 35.4802C278.313 36.1344 279.717 35.538 282.525 34.3451L283.251 34.0364C284.049 33.6974 284.448 33.528 284.871 33.528C285.293 33.528 285.692 33.6974 286.49 34.0364L287.217 34.3451C290.024 35.538 291.428 36.1344 292.362 35.4802C293.296 34.826 293.141 33.3544 292.832 30.4112L292.775 29.8633Z" fill="#FED56B"/>
<path opacity="0.5" d="M281.4 17.0844L281 17.7458C280.561 18.4722 280.342 18.8354 280 19.075C280.048 19.0414 280.094 19.0053 280.138 18.9662C280.043 19.4853 279.994 20.0186 279.994 20.5625C279.994 25.8437 284.633 30.125 290.356 30.125C291.189 30.125 291.999 30.0344 292.774 29.8633L292.752 29.6498C292.664 28.8134 292.62 28.3952 292.751 28.0074C292.882 27.6196 293.172 27.3062 293.753 26.6793L294.282 26.1086C296.326 23.9027 297.348 22.7997 296.992 21.7412C296.635 20.6827 295.136 20.3696 292.137 19.7435L291.361 19.5816C290.509 19.4036 290.083 19.3147 289.741 19.075C289.399 18.8354 289.179 18.4722 288.741 17.7458L288.341 17.0844C286.797 14.5281 286.025 13.25 284.87 13.25C283.716 13.25 282.944 14.5281 281.4 17.0844Z" fill="#FED56B"/>
<path d="M265.534 29.8633C264.758 30.0344 263.948 30.125 263.116 30.125C257.392 30.125 252.753 25.8437 252.753 20.5625C252.753 20.0186 252.802 19.4853 252.897 18.9662C252.853 19.0053 252.807 19.0414 252.759 19.075C252.417 19.3147 251.991 19.4036 251.139 19.5816L250.363 19.7435C247.364 20.3696 245.865 20.6827 245.508 21.7412C245.152 22.7998 246.174 23.9027 248.218 26.1086L248.747 26.6793C249.328 27.3062 249.618 27.6196 249.749 28.0074C249.88 28.3952 249.836 28.8134 249.748 29.6498L249.668 30.4112C249.359 33.3544 249.204 34.826 250.138 35.4802C251.072 36.1344 252.476 35.538 255.283 34.3451L256.01 34.0364C256.808 33.6974 257.207 33.528 257.629 33.528C258.052 33.528 258.451 33.6974 259.249 34.0364L259.975 34.3451C262.783 35.538 264.187 36.1344 265.121 35.4802C266.055 34.826 265.9 33.3544 265.591 30.4112L265.534 29.8633Z" fill="#FED56B"/>
<path opacity="0.5" d="M254.159 17.0844L253.759 17.7458C253.32 18.4722 253.101 18.8354 252.759 19.075C252.807 19.0414 252.852 19.0053 252.897 18.9662C252.802 19.4853 252.753 20.0186 252.753 20.5625C252.753 25.8437 257.392 30.125 263.115 30.125C263.948 30.125 264.758 30.0344 265.533 29.8633L265.511 29.6498C265.423 28.8134 265.379 28.3952 265.51 28.0074C265.641 27.6196 265.931 27.3062 266.512 26.6793L267.041 26.1086C269.085 23.9027 270.107 22.7997 269.75 21.7412C269.394 20.6827 267.894 20.3696 264.896 19.7435L264.12 19.5816C263.268 19.4036 262.842 19.3147 262.5 19.075C262.158 18.8354 261.938 18.4722 261.499 17.7458L261.1 17.0844C259.556 14.5281 258.784 13.25 257.629 13.25C256.475 13.25 255.703 14.5281 254.159 17.0844Z" fill="#FED56B"/>
<rect x="19" y="70" width="331" height="105" rx="20" fill="#517F89" fill-opacity="0.3"/>
</svg>
